<svg id="Layer_1" xmlns="http://www.w3.org/2000/svg" viewBox="0 0 3007.457 3420.711"><style>.st0{fill:#b31983}</style><path d="M55.442 2276.748h162c39.223 0 76.5 4.393 111.807 13.154 35.308 8.773 66.115 22.965 92.423 42.576 26.308 19.623 47.185 45.119 62.654 76.5 15.458 31.393 23.192 69.469 23.192 114.23 0 39.699-7.507 74.66-22.5 104.885-15.003 30.234-35.2 55.623-60.577 76.154-25.388 20.541-54.692 36.117-87.923 46.73-33.231 10.621-68.084 15.922-104.539 15.922H55.442v-490.151zm107.999 390.461h56.077c24.923 0 48.115-2.531 69.577-7.615 21.462-5.074 40.035-13.5 55.731-25.27 15.685-11.77 28.038-27.227 37.038-46.385 9-19.146 13.5-42.576 13.5-70.27 0-23.992-4.5-44.881-13.5-62.652-9-17.762-21.115-32.42-36.346-43.963-15.231-11.529-33.123-20.184-53.654-25.961-20.542-5.766-42.123-8.654-64.73-8.654h-63.692v290.77zM873.046 2708.748c-16.615 21.234-37.623 37.621-63 49.152-25.388 11.531-51.696 17.309-78.923 17.309-25.853 0-50.192-4.154-73.038-12.463-22.846-8.307-42.696-20.184-59.538-35.652-16.854-15.459-30.116-34.031-39.808-55.73-9.692-21.689-14.539-45.92-14.539-72.693 0-26.762 4.846-50.992 14.539-72.691 9.692-21.689 22.954-40.262 39.808-55.73 16.842-15.459 36.692-27.346 59.538-35.654 22.846-8.307 47.185-12.461 73.038-12.461 23.993 0 45.801 4.154 65.423 12.461 19.611 8.309 36.227 20.195 49.846 35.654 13.608 15.469 24.112 34.041 31.5 55.73 7.377 21.699 11.077 45.93 11.077 72.691v32.539H648.046c4.154 19.85 13.154 35.654 27 47.424 13.846 11.768 30.916 17.652 51.231 17.652 17.069 0 31.5-3.807 43.269-11.422 11.769-7.615 22.035-17.416 30.808-29.424l72.692 53.308zm-87.923-148.154c.455-17.535-5.311-32.539-17.308-45-12.007-12.461-27.465-18.691-46.384-18.691-11.542 0-21.7 1.85-30.461 5.537-8.773 3.699-16.27 8.428-22.5 14.193-6.231 5.775-11.077 12.461-14.539 20.076s-5.43 15.576-5.885 23.885h137.077zM1544.568 2732.285c-31.846 16.615-65.076 28.623-99.691 36s-69.923 11.078-105.923 11.078c-38.314 0-73.622-6.004-105.922-18-32.312-11.998-60.231-29.186-83.769-51.578-23.539-22.381-41.885-49.5-55.039-81.346s-19.73-67.381-19.73-106.615c0-39.223 6.577-74.77 19.73-106.615s31.5-58.953 55.039-81.346c23.538-22.381 51.458-39.57 83.769-51.576 32.3-11.996 67.608-18 105.922-18 39.224 0 75.343 4.738 108.345 14.191 32.994 9.465 61.963 25.734 86.885 48.809l-76.152 83.076c-14.777-15.23-31.393-26.762-49.848-34.615-18.464-7.842-41.538-11.77-69.23-11.77-23.084 0-43.961 3.928-62.653 11.77-18.692 7.854-34.734 18.811-48.115 32.885-13.392 14.084-23.658 30.807-30.808 50.191-7.161 19.385-10.731 40.393-10.731 63 0 23.084 3.57 44.199 10.731 63.346 7.15 19.158 17.416 35.773 30.808 49.848 13.381 14.084 29.423 25.041 48.115 32.883 18.692 7.854 39.569 11.77 62.653 11.77 23.539 0 43.843-2.65 60.923-7.961 17.07-5.301 30.688-10.73 40.846-16.27v-79.615H1352.8v-99.691h191.769v256.151zM1621.415 2430.439h103.846v54h1.385c11.077-20.77 24.23-36.346 39.461-46.73 15.231-10.385 34.378-15.576 57.462-15.576 5.992 0 11.996.238 18 .691 5.992.465 11.531 1.385 16.615 2.77v94.846c-7.389-2.303-14.657-4.035-21.808-5.191-7.161-1.146-14.657-1.73-22.5-1.73-19.85 0-35.546 2.77-47.077 8.307-11.542 5.539-20.423 13.273-26.653 23.193-6.23 9.93-10.276 21.807-12.115 35.652-1.85 13.848-2.77 29.078-2.77 45.693V2766.9h-103.846v-336.461zM1880.819 2598.67c0-26.762 4.847-50.992 14.539-72.691 9.691-21.689 22.954-40.262 39.808-55.73 16.842-15.459 36.691-27.346 59.538-35.654 22.846-8.307 47.185-12.461 73.038-12.461 25.843 0 50.192 4.154 73.038 12.461 22.847 8.309 42.686 20.195 59.538 35.654 16.843 15.469 30.115 34.041 39.808 55.73 9.692 21.699 14.539 45.93 14.539 72.691 0 26.773-4.847 51.004-14.539 72.693-9.692 21.699-22.965 40.271-39.808 55.73-16.853 15.469-36.691 27.346-59.538 35.652-22.846 8.309-47.195 12.463-73.038 12.463-25.853 0-50.192-4.154-73.038-12.463-22.847-8.307-42.696-20.184-59.538-35.652-16.854-15.459-30.116-34.031-39.808-55.73-9.692-21.689-14.539-45.92-14.539-72.693zm103.846 0c0 25.389 7.27 45.932 21.808 61.615 14.539 15.697 34.962 23.539 61.269 23.539 26.308 0 46.73-7.842 61.269-23.539 14.539-15.684 21.809-36.227 21.809-61.615 0-25.377-7.27-45.918-21.809-61.615-14.538-15.684-34.961-23.537-61.269-23.537-26.307 0-46.73 7.854-61.269 23.537-14.539 15.697-21.808 36.238-21.808 61.615zM2291.278 2598.67c0-26.762 4.847-50.992 14.539-72.691 9.691-21.689 22.954-40.262 39.808-55.73 16.842-15.459 36.691-27.346 59.538-35.654 22.846-8.307 47.185-12.461 73.038-12.461 25.843 0 50.192 4.154 73.038 12.461 22.847 8.309 42.686 20.195 59.538 35.654 16.843 15.469 30.115 34.041 39.808 55.73 9.692 21.699 14.539 45.93 14.539 72.691 0 26.773-4.847 51.004-14.539 72.693-9.692 21.699-22.965 40.271-39.808 55.73-16.853 15.469-36.691 27.346-59.538 35.652-22.846 8.309-47.195 12.463-73.038 12.463-25.854 0-50.192-4.154-73.038-12.463-22.847-8.307-42.696-20.184-59.538-35.652-16.854-15.459-30.116-34.031-39.808-55.73-9.692-21.689-14.539-45.92-14.539-72.693zm103.846 0c0 25.389 7.27 45.932 21.808 61.615 14.539 15.697 34.962 23.539 61.27 23.539s46.73-7.842 61.269-23.539c14.539-15.684 21.809-36.227 21.809-61.615 0-25.377-7.27-45.918-21.809-61.615-14.538-15.684-34.961-23.537-61.269-23.537s-46.73 7.854-61.27 23.537c-14.539 15.697-21.808 36.238-21.808 61.615zM2945.982 2513.518h-91.385v112.152c0 9.238.454 17.654 1.385 25.27.92 7.615 2.996 14.193 6.23 19.73 3.224 5.539 8.188 9.812 14.885 12.809 6.686 3.006 15.577 4.5 26.654 4.5 5.538 0 12.808-.574 21.808-1.73 9-1.146 15.804-3.809 20.423-7.963v86.539c-11.542 4.154-23.539 6.922-36 8.307-12.462 1.385-24.696 2.078-36.692 2.078-17.546 0-33.696-1.85-48.461-5.539-14.776-3.689-27.692-9.572-38.77-17.654-11.077-8.068-19.73-18.572-25.962-31.5-6.23-12.916-9.346-28.611-9.346-47.076v-159.922h-66.461v-83.078h66.461v-99.691h103.846v99.691h91.385v83.077z"/><path class="st0" d="M757.947 3284.977c-19.384 24.924-40.619 42.35-63.692 52.27-23.084 9.92-49.846 14.885-80.308 14.885-25.388 0-48.234-4.5-68.538-13.5-20.315-9-37.503-21.115-51.577-36.346-14.084-15.232-24.923-33.23-32.539-54s-11.423-42.924-11.423-66.463c0-24.922 4.154-47.877 12.461-68.883 8.308-20.996 19.839-38.996 34.615-54 14.766-14.994 32.3-26.654 52.615-34.963 20.304-8.307 42.458-12.461 66.461-12.461 22.608 0 43.377 3.809 62.308 11.424 18.919 7.615 35.188 18.691 48.807 33.23 13.608 14.539 24.112 32.311 31.5 53.307 7.377 21.008 11.077 44.893 11.077 71.654v17.309H508.025c.919 13.846 4.262 27.117 10.039 39.807 5.766 12.699 13.262 23.777 22.5 33.23 9.227 9.465 20.077 16.961 32.539 22.5 12.461 5.539 26.069 8.309 40.846 8.309 23.539 0 43.377-4.154 59.539-12.463 16.15-8.307 30.688-20.531 43.615-36.691l40.844 31.845zm-46.384-132.231c-.93-27.691-9.93-49.846-27-66.461-17.081-16.615-40.619-24.924-70.615-24.924-30.007 0-54.238 8.309-72.692 24.924-18.465 16.615-29.542 38.77-33.231 66.461h203.538zM838.67 3096.67c0-14.766-.465-28.611-1.384-41.539-.931-12.916-1.385-24.686-1.385-35.307h51.23c0 8.771.228 17.545.692 26.307a521.27 521.27 0 0 1 .692 27h1.385c3.688-7.842 8.881-15.457 15.577-22.846 6.685-7.377 14.646-13.955 23.885-19.73 9.227-5.766 19.611-10.385 31.154-13.846 11.531-3.463 23.993-5.193 37.384-5.193 21.224 0 39.57 3.234 55.039 9.693 15.458 6.469 28.265 15.469 38.423 27 10.146 11.541 17.654 25.506 22.5 41.883 4.846 16.389 7.269 34.27 7.269 53.654v200.076h-54v-194.537c0-27.227-6.003-48.689-18-64.385-12.007-15.686-30.699-23.539-56.077-23.539-17.545 0-32.657 3.008-45.346 9-12.7 6.004-23.084 14.539-31.154 25.615-8.081 11.078-14.084 24.23-18 39.463-3.927 15.23-5.885 32.084-5.885 50.537v157.846h-54V3096.67z"/><path d="M1587.745 2973.439c-8.773-11.078-20.661-19.266-35.654-24.578-15.003-5.299-29.195-7.961-42.576-7.961-7.854 0-15.924.93-24.231 2.77-8.308 1.85-16.16 4.738-23.538 8.654-7.388 3.926-13.392 9.119-18 15.576-4.619 6.469-6.923 14.312-6.923 23.539 0 14.775 5.538 26.08 16.615 33.922 11.077 7.854 25.031 14.539 41.885 20.078 16.842 5.537 34.961 11.076 54.346 16.615 19.385 5.537 37.493 13.391 54.346 23.537 16.843 10.158 30.808 23.777 41.885 40.848 11.077 17.08 16.615 39.926 16.615 68.537 0 27.238-5.084 51.004-15.23 71.309-10.157 20.314-23.885 37.156-41.192 50.537-17.308 13.393-37.385 23.312-60.23 29.77-22.846 6.459-46.969 9.693-72.346 9.693-31.847 0-61.389-4.848-88.615-14.539-27.238-9.693-52.615-25.377-76.154-47.076l76.846-84.463c11.076 14.777 25.031 26.199 41.884 34.27 16.843 8.08 34.27 12.115 52.27 12.115 8.762 0 17.654-1.037 26.653-3.115 9-2.076 17.07-5.191 24.231-9.346 7.15-4.154 12.916-9.455 17.308-15.924 4.381-6.457 6.577-14.072 6.577-22.846 0-14.766-5.658-26.416-16.962-34.961-11.314-8.535-25.507-15.805-42.577-21.809-17.08-5.992-35.545-11.996-55.384-18-19.85-5.992-38.315-14.072-55.385-24.23-17.081-10.146-31.273-23.537-42.577-40.152-11.315-16.617-16.962-38.531-16.962-65.77 0-26.309 5.192-49.381 15.577-69.23 10.384-19.84 24.23-36.455 41.538-49.846 17.308-13.381 37.266-23.42 59.884-30.115 22.608-6.686 45.92-10.039 69.923-10.039 27.692 0 54.454 3.926 80.308 11.77 25.843 7.854 49.154 21.006 69.923 39.461l-74.078 80.999zM1721.077 2820.439h103.846v523.383h-103.846v-523.383zM1879.541 3175.592c0-26.762 4.847-50.992 14.539-72.691 9.691-21.689 22.954-40.262 39.808-55.73 16.842-15.459 36.691-27.346 59.538-35.654 22.846-8.307 47.185-12.461 73.038-12.461 25.843 0 50.192 4.154 73.038 12.461 22.847 8.309 42.686 20.195 59.538 35.654 16.843 15.469 30.115 34.041 39.808 55.73 9.692 21.699 14.539 45.93 14.539 72.691 0 26.773-4.847 51.004-14.539 72.693-9.692 21.699-22.965 40.271-39.808 55.73-16.853 15.469-36.691 27.346-59.538 35.652-22.846 8.309-47.195 12.463-73.038 12.463-25.853 0-50.192-4.154-73.038-12.463-22.847-8.307-42.696-20.184-59.538-35.652-16.854-15.459-30.116-34.031-39.808-55.73-9.692-21.689-14.539-45.92-14.539-72.693zm103.846 0c0 25.389 7.27 45.932 21.808 61.615 14.539 15.697 34.962 23.539 61.269 23.539 26.308 0 46.73-7.842 61.269-23.539 14.539-15.684 21.809-36.227 21.809-61.615 0-25.377-7.27-45.918-21.809-61.615-14.538-15.684-34.961-23.537-61.269-23.537-26.307 0-46.73 7.854-61.269 23.537-14.539 15.697-21.808 36.238-21.808 61.615zM2534.246 3090.439h-91.385v112.152c0 9.238.454 17.654 1.385 25.27.92 7.615 2.996 14.193 6.23 19.73 3.224 5.539 8.188 9.812 14.885 12.809 6.686 3.006 15.577 4.5 26.654 4.5 5.538 0 12.808-.574 21.808-1.73 9-1.146 15.804-3.809 20.423-7.963v86.539c-11.542 4.154-23.539 6.922-36 8.307-12.462 1.385-24.696 2.078-36.692 2.078-17.546 0-33.696-1.85-48.461-5.539-14.776-3.689-27.692-9.572-38.77-17.654-11.077-8.068-19.73-18.572-25.962-31.5-6.23-12.916-9.346-28.611-9.346-47.076V3090.44h-66.461v-83.078h66.461v-99.691h103.846v99.691h91.385v83.077z"/><g><path class="st0" d="M1488.511 1591.977c297.748 0 539.178-241.365 539.178-539.113 0-297.777-241.43-539.145-539.178-539.145-108.112 0-208.687 31.926-293.042 86.707-28.098-150.805-69.914-296.754-124.241-436.49 126.653-59.576 268.049-92.92 417.283-92.92 542.254 0 981.818 439.568 981.818 981.848 0 542.25-439.564 981.816-981.818 981.816-149.234 0-290.63-33.315-417.283-92.889 54.327-139.738 96.144-285.688 124.241-436.49 84.355 54.75 184.93 86.676 293.042 86.676z"/><path class="st0" d="M1020.427 785.416c-21.164-179.203-63.312-351.984-124-515.779 22.339-16.885 45.373-32.863 69.129-47.846 56.86 149.354 98.978 305.975 124.272 468.176-26.47 29.06-49.685 61.139-69.401 95.449zM1089.828 1415.76c-25.294 162.23-67.412 318.82-124.272 468.146-23.756-14.984-46.79-30.902-69.129-47.848 60.688-163.795 102.836-336.576 124-515.779 19.716 34.369 42.931 66.389 69.401 95.481zM799.619 353.328c75.974 219.178 117.398 454.518 117.398 699.535 0 245.016-41.424 480.324-117.398 699.506a968.869 968.869 0 0 1-63.192-68.439c64.156-198.859 98.947-410.863 98.947-631.066 0-220.174-34.791-432.24-98.947-631.068 19.96-23.849 41.063-46.642 63.192-68.468zM648.394 544.44c44.017 162.047 67.653 332.447 67.653 508.424 0 175.976-23.636 346.375-67.653 508.424-89.933-148.301-141.728-322.316-141.728-508.424 0-186.11 51.796-360.126 141.728-508.424z"/></g><path d="M1229.477 857.35c59.271-78.356 153.215-129.033 259.067-129.033 179.201 0 324.488 145.312 324.488 324.547 0 179.203-145.287 324.518-324.488 324.518-105.852 0-199.796-50.678-259.067-129.037-41.094-54.385-65.483-122.07-65.483-195.48 0-73.414 24.389-141.129 65.483-195.515z"/></svg>